<?xml version="1.0" encoding="UTF-8"?>
<!DOCTYPE svg PUBLIC "-//W3C//DTD SVG 1.1//EN" "http://www.w3.org/Graphics/SVG/1.1/DTD/svg11.dtd">
<!-- Creator: CorelDRAW X7 -->
<svg xmlns="http://www.w3.org/2000/svg" xml:space="preserve" width="963px" height="1497px" version="1.1" style="shape-rendering:geometricPrecision; text-rendering:geometricPrecision; image-rendering:optimizeQuality; fill-rule:evenodd; clip-rule:evenodd"
viewBox="0 0 963 1497"
 xmlns:xlink="http://www.w3.org/1999/xlink">
 <defs>
  <style type="text/css">
   <![CDATA[
    .fil1 {fill:#45271E}
    .fil0 {fill:#45271E;fill-opacity:0.301961}
   ]]>
  </style>
 </defs>
 <g id="Layer_x0020_1">
  <metadata id="CorelCorpID_0Corel-Layer"/>
  <path class="fil0" d="M299 316c122,-5 250,-56 369,-27l-10 -96 -126 -37 -184 24 -68 114 19 22z"/>
  <path class="fil1" d="M283 333c21,5 31,24 34,52l9 0c-7,-33 -11,-65 -10,-98l-7 -32 -54 9c6,26 13,50 28,69z"/>
  <path class="fil1" d="M643 258c5,44 2,85 -10,124l15 3c6,-36 20,-50 41,-48 7,-22 11,-45 13,-68l-49 -15 -10 4z"/>
  <path class="fil1" d="M540 29c-14,-19 -25,-29 -31,-28 -3,5 -3,12 5,22 -180,-14 -303,122 -271,274 35,10 63,11 101,6 0,-27 5,-52 12,-75 1,25 3,49 9,72 60,-9 123,-27 188,-31 10,-27 12,-54 9,-82 12,24 19,51 17,81 47,0 86,5 134,31 40,-144 -42,-242 -149,-262 7,-9 8,-14 6,-17 -7,-3 -17,1 -30,9z"/>
 </g>
</svg>
