<?xml version="1.0" encoding="UTF-8"?>
<!DOCTYPE svg PUBLIC "-//W3C//DTD SVG 1.1//EN" "http://www.w3.org/Graphics/SVG/1.1/DTD/svg11.dtd">
<svg xmlns="http://www.w3.org/2000/svg" xml:space="preserve" width="100%" height="100%" version="1.1" style="shape-rendering:geometricPrecision; text-rendering:geometricPrecision; image-rendering:optimizeQuality; fill-rule:evenodd; clip-rule:evenodd"
viewBox="0 0 963 1497"
 xmlns:xlink="http://www.w3.org/1999/xlink">
 <defs>
  <style type="text/css">
   <![CDATA[
    .fil1 {fill:#45271E}
    .fil0 {fill:#45271E;fill-opacity:0.301961}
   ]]>
  </style>
 </defs>
 <g id="Layer_x0020_1">
  <path class="fil0" d="M363 344c-14,-15 -21,-33 -22,-53 18,-10 34,-26 45,-51 30,30 62,45 101,26 -27,-3 -46,-22 -54,-59 25,10 50,16 75,16 29,44 63,52 101,39 21,43 17,77 -2,105 23,0 41,-11 61,-34l-28 -110 -147 -74 -97 4 -90 79 -5 69 25 35c0,0 37,10 37,8z"/>
  <path class="fil1" d="M381 214c28,43 63,62 111,42 -39,-10 -67,-29 -64,-71 23,21 51,32 87,31 20,40 52,53 96,36 25,47 31,86 -6,109 21,3 43,-6 64,-24 27,-11 44,25 28,57 -15,26 -38,36 -55,24 -14,45 -33,83 -65,111 9,11 23,14 39,11 -2,-13 0,-25 7,-38 19,22 39,25 58,1 -17,7 -29,-10 -23,-31 22,-7 36,-21 40,-45 21,-20 34,-44 36,-76l0 0c1,-12 0,-24 -1,-37 17,-10 23,-24 20,-41 -4,23 -20,13 -25,3 15,-34 11,-66 -9,-97 16,-14 20,-34 14,-58 -4,12 -11,16 -22,13 -36,-16 -56,-58 -89,-79 -19,-12 -39,-22 -62,-28 0,-10 -4,-18 -16,-22 1,39 -96,16 -139,27 -31,8 -58,24 -82,55 -17,-15 -23,-39 -17,-71 -22,28 -27,55 -4,82 -33,19 -52,49 -57,92 -12,-2 -19,-9 -23,-22 -4,22 -4,42 3,61 -14,33 -15,68 -1,102 -3,7 -11,10 -19,6 2,27 12,48 38,59l0 0c9,29 29,49 49,65 11,8 46,25 33,42 -4,4 -10,6 -19,5 14,13 30,15 49,4 9,8 21,15 33,18 -30,-26 -50,-59 -68,-111 -26,5 -48,-14 -54,-37 -5,-20 0,-41 19,-49 25,23 54,28 85,14 -19,-15 -34,-35 -40,-66 27,-12 47,-31 51,-67z"/>
 </g>
</svg>
