<?xml version="1.0" encoding="UTF-8"?>
<!DOCTYPE svg PUBLIC "-//W3C//DTD SVG 1.1//EN" "http://www.w3.org/Graphics/SVG/1.1/DTD/svg11.dtd">
<!-- Creator: CorelDRAW X7 -->
<svg xmlns="http://www.w3.org/2000/svg" xml:space="preserve" width="100%" height="100%" version="1.1" style="shape-rendering:geometricPrecision; text-rendering:geometricPrecision; image-rendering:optimizeQuality; fill-rule:evenodd; clip-rule:evenodd"
viewBox="0 0 963 1497"
 xmlns:xlink="http://www.w3.org/1999/xlink">
 <defs>
  <style type="text/css">
   <![CDATA[
    .fil1 {fill:#E0CA86}
    .fil0 {fill:#45271E;fill-opacity:0.301961}
   ]]>
  </style>
 </defs>
 <g id="Layer_x0020_1">
  <metadata id="CorelCorpID_0Corel-Layer"/>
  <path class="fil0" d="M318 295c58,-17 110,-41 147,-91 12,32 9,64 0,96 41,-18 76,-47 93,-102 33,26 51,59 57,96 11,-5 21,-11 29,-22l1 -29 -41 -69 -65 -6 -132 2 -76 42 -30 36 17 47z"/>
  <path class="fil1" d="M299 336c14,8 24,34 31,70 13,-39 4,-80 -12,-123 59,-21 113,-47 146,-98 10,37 9,73 -1,109 45,-18 74,-55 89,-109 38,19 56,58 68,100 6,-1 15,-6 22,-12 -13,45 -13,89 -2,133 8,-29 21,-54 43,-71 19,-47 19,-96 3,-148l20 14c-3,-28 -18,-52 -43,-73l21 0c-89,-119 -268,-112 -371,-14 -1,-9 -3,-15 -6,-19 -8,-3 -14,12 -20,36 -17,0 -24,9 -25,16 3,2 8,4 16,5 -22,60 -18,121 3,182 6,-3 12,-2 18,2z"/>
 </g>
</svg>
