<?xml version="1.0" encoding="UTF-8"?>
    <!DOCTYPE svg PUBLIC "-//W3C//DTD SVG 1.1//EN" "http://www.w3.org/Graphics/SVG/1.1/DTD/svg11.dtd">
    <!-- Creator: CorelDRAW X7 -->
    <svg xmlns="http://www.w3.org/2000/svg" xml:space="preserve" width="100%" height="100%" version="1.1" style="shape-rendering:geometricPrecision; text-rendering:geometricPrecision; image-rendering:optimizeQuality; fill-rule:evenodd; clip-rule:evenodd" viewBox="0 0 963 1497" xmlns:xlink="http://www.w3.org/1999/xlink">
        <defs>
            <style type="text/css">
                <![CDATA[ .str0 {
                    stroke: #573328;
                    stroke-width: 3.99764;
                    stroke-linecap: round;
                    stroke-linejoin: round
                }
                
                .str2 {
                    stroke: #573328;
                    stroke-width: 2.2621;
                    stroke-linecap: round;
                    stroke-linejoin: round
                }
                
                .str1 {
                    stroke: #573328;
                    stroke-width: 2.2621;
                    stroke-linecap: round;
                    stroke-linejoin: round
                }
                
                .fil4 {
                    fill: none
                }
                
                .fil2 {
                    fill: #FEFEFE
                }
                
                .fil6 {
                    fill: #373435
                }
                
                .fil5 {
                    fill: #373435
                }
                
                .fil1 {
                    fill: #452919
                }
                
                .fil0 {
                    fill: #6E4234
                }
                
                .fil3 {
                    fill: #D14841
                }
                
                .fil7 {
                    fill: #EFEFEF
                }
                
                ]]>
            </style>
            <clipPath id="id0">
                <path d="M421 495c10,-16 114,-37 129,-24 10,22 -21,62 -54,68 -40,4 -82,-24 -75,-44z" />
            </clipPath>
        </defs>
        <g id="Layer_x0020_1">
            <metadata id="CorelCorpID_0Corel-Layer" />
            <g id="_402962576">
                <path class="fil0" d="M285 362c-4,5 -3,9 -3,15 0,8 0,6 2,14 3,7 11,14 19,14 2,0 5,0 4,-3 0,-4 -11,-3 -10,-14 0,-6 12,-14 5,-22 -2,-3 -9,-5 -13,-5 -1,0 -4,0 -4,1z" />
                <path class="fil0" d="M665 380c-2,-3 -1,-10 1,-13 2,-3 1,-3 4,-7 4,-4 15,-7 17,-2 1,2 0,14 -3,16 -4,3 -8,22 -12,27 -5,4 -7,8 -15,6 -6,-1 -3,-5 3,-6 2,0 9,-6 9,-9 0,-6 1,-7 -4,-11l0 -1z" />
                <path class="fil0" d="M448 445c10,4 19,8 30,8 9,0 21,-3 29,-7 -3,26 -42,20 -53,11 -6,-4 -7,-13 -6,-12z" />
                <path class="fil1" d="M421 495c10,-16 114,-37 129,-24 10,22 -21,62 -54,68 -40,4 -82,-24 -75,-44z" />
                <g style="clip-path:url(#id0)">
                    <g>
                        <path id="1" class="fil2" d="M431 487c6,6 13,10 23,13 22,0 45,-5 69,-17 4,-4 7,-10 9,-16 -35,1 -68,7 -101,20z" />
                        <path class="fil3" d="M448 530c18,-37 58,-38 89,-16 -25,29 -54,32 -89,16z" />
                    </g>
                </g>
                <path class="fil4" d="M421 495c10,-16 114,-37 129,-24 10,22 -21,62 -54,68 -40,4 -82,-24 -75,-44z" />
                <path class="fil1" d="M432 274c0,-10 -2,-19 -7,-27 -8,-4 -18,-3 -32,0 -20,10 -28,23 -34,37 23,-8 47,-13 73,-10z" />
                <path class="fil4 str0" d="M504 454c5,-8 3,-15 -3,-22" />
                <path class="fil4 str0" d="M453 433c-7,10 -7,18 2,24" />
                <path class="fil1" d="M490 459c1,-2 8,-13 9,-6 1,2 -6,3 -9,5 0,0 0,1 0,1z" />
                <path class="fil1" d="M468 459c-3,-2 -7,-8 -8,-9 -2,0 -2,1 -1,3 0,3 5,4 7,5 2,1 4,2 2,1z" />
                <path class="fil4 str0" d="M285 376c-2,0 -5,-11 1,-14 5,-3 26,3 17,16 -4,4 -7,9 -6,15 0,4 8,8 11,8" />
                <path class="fil4 str0" d="M682 377c4,-3 9,-20 2,-21 -8,-2 -13,0 -17,7 -3,4 -5,16 0,19 3,3 5,11 -1,15 -2,2 -9,5 -12,5" />
                <path class="fil1" d="M434 274c1,-9 -1,-18 -6,-27 2,-1 4,-1 6,0 4,8 4,17 2,27l-2 0z" />
                <path class="fil1" d="M521 282c-1,-8 0,-16 2,-25 11,-7 29,-12 42,-11 17,5 28,16 33,32 -22,-8 -51,-5 -77,4z" />
                <path class="fil4 str0" d="M86 905c18,20 39,18 60,9" />
                <path class="fil4 str0" d="M68 943c14,22 34,35 56,42" />
                <path class="fil4 str0" d="M873 905c-19,20 -39,18 -61,9" />
                <path class="fil4 str0" d="M891 943c-15,22 -34,35 -56,42" />
                <path class="fil4 str0" d="M402 1190c-2,4 -11,34 11,30 7,-2 -2,-43 -6,-25 -1,1 0,2 0,3" />
                <path class="fil4 str0" d="M563 1190c3,4 11,34 -10,30 -8,-2 1,-43 6,-25 0,1 0,2 0,3" />
                <path class="fil5" d="M522 364c-3,-6 -5,-14 -1,-21 36,-25 84,-6 74,42l-73 -21z" />
                <path class="fil2" d="M532 416c-12,-16 -14,-46 -9,-65 17,-19 61,-16 70,16 5,18 -1,38 -20,47 -12,6 -29,7 -41,2z" />
                <path class="fil6" d="M436 359c1,-6 -1,-16 -5,-21 -26,-9 -53,6 -66,28 -1,9 0,18 5,26l66 -33z" />
                <path class="fil2" d="M439 374c-2,-16 -9,-28 -21,-32 -21,-3 -41,9 -50,32 -1,22 7,36 23,44 7,2 13,2 19,1 25,-2 31,-23 29,-45z" />
                <path class="fil4 str1" d="M519 338c15,-11 31,-14 49,-11" />
                <path class="fil4 str2" d="M372 348c15,-14 31,-22 51,-19" />
                <path class="fil7" d="M577 1068l-78 0 0 -26c-10,2 -19,2 -29,0l0 26 -82 0c0,-43 2,-87 6,-130 56,5 117,3 176,0 4,44 7,87 7,130z" />
                <path class="fil0" d="M459 562c15,2 31,2 47,0l0 10c-15,11 -32,10 -48,2l1 -12z" />
            </g>
        </g>
    </svg>