<svg xmlns="http://www.w3.org/2000/svg" xml:space="preserve" width="100%" height="100%" version="1.1"
    style="shape-rendering:geometricPrecision; text-rendering:geometricPrecision; image-rendering:optimizeQuality; fill-rule:evenodd; clip-rule:evenodd"
    viewBox="0 0 963 1497" xmlns:xlink="http://www.w3.org/1999/xlink">
    <defs>
        <style type="text/css">
            <![CDATA[
            .fil0 {
                fill: #757575
            }
            ]]>
        </style>
    </defs>
    <g id="Layer_x0020_1">
        <path class="fil0"
            d="M822 864c32,-3 61,-11 85,-31 10,-1 16,10 16,21 -7,25 -36,23 -33,42 10,22 51,41 71,63 5,8 -1,20 -12,18 -18,-9 -37,-23 -54,-28 0,0 -1,1 -1,2 12,14 30,29 45,44 2,11 -4,15 -13,16 -18,-6 -37,-27 -53,-37 -1,1 -2,1 -3,3 8,17 23,35 30,54 -1,10 -7,12 -16,10 -14,-14 -24,-34 -36,-50 -1,0 -2,0 -3,1l-2 53c-4,8 -11,8 -17,4 -8,-17 -3,-35 -6,-53 -15,-23 -39,-38 -44,-70 -85,-68 -156,-157 -234,-235 36,224 36,439 44,666 14,62 82,50 114,86 10,16 12,34 7,53l-205 0 -3 -454 -6 0 -8 0 -15 0 1 454 -210 0c-5,-84 54,-68 96,-97 13,-10 23,-21 28,-35 3,-224 -1,-455 37,-674 -79,79 -150,168 -235,236 -5,32 -29,47 -44,70 -3,18 2,36 -6,53 -6,4 -13,4 -17,-4l-2 -53c-1,-1 -2,-1 -3,-1 -12,16 -22,36 -36,50 -9,2 -15,0 -16,-10 7,-19 22,-37 30,-54 -1,-2 -2,-2 -3,-3 -16,10 -35,31 -53,37 -9,-1 -15,-5 -13,-16 15,-15 33,-30 45,-44 0,-1 -1,-2 -1,-2 -17,5 -36,19 -54,28 -11,2 -17,-10 -12,-18 20,-22 61,-41 71,-63 3,-19 -26,-17 -33,-42 0,-11 6,-22 16,-21 24,20 53,28 85,31 79,-68 165,-125 241,-200 13,-14 36,-41 51,-51 5,-3 10,-5 16,-6l0 0c7,-12 10,-28 9,-45 -42,-7 -82,-33 -109,-76 -11,-19 -21,-41 -29,-66 -60,8 -73,-72 -36,-87 -19,-75 2,-140 47,-186 91,-91 265,-88 332,26 25,42 30,96 20,161 51,18 0,113 -41,85 -9,28 -20,53 -33,74 -26,40 -64,62 -103,69 -1,15 1,29 6,43l1 3c1,0 1,0 1,-1 6,1 11,3 16,6 15,10 38,37 51,51 76,75 162,132 241,200zm-337 84l0 0c0,1 0,1 0,2 0,-1 0,-1 0,-2z" />
    </g>
</svg>