<?xml version="1.0" encoding="UTF-8"?>
<!DOCTYPE svg PUBLIC "-//W3C//DTD SVG 1.1//EN" "http://www.w3.org/Graphics/SVG/1.1/DTD/svg11.dtd">
<svg xmlns="http://www.w3.org/2000/svg" xml:space="preserve" width="100%" height="100%" version="1.1" style="shape-rendering:geometricPrecision; text-rendering:geometricPrecision; image-rendering:optimizeQuality; fill-rule:evenodd; clip-rule:evenodd"
viewBox="0 0 963 1497"
 xmlns:xlink="http://www.w3.org/1999/xlink">
 <defs>
  <style type="text/css">
   <![CDATA[
    .fil4 {fill:none}
    .fil0 {fill:#373435}
    .fil1 {fill:#B8312F}
    .fil2 {fill:#EFEFEF}
    .fil3 {fill:#373435;fill-rule:nonzero}
   ]]>
  </style>
      <clipPath id="id0">
       <path d="M436 609c-20,7 -62,58 -93,87l38 38 35 -35c-17,92 -25,185 -29,278 64,14 129,13 193,2 -2,-94 -13,-186 -31,-279l33 34 38 -38c-31,-28 -67,-76 -94,-87l-11 5 -34 32 -39 -35c0,0 -6,-1 -6,-2z"/>
      </clipPath>
 </defs>
 <g id="Layer_x0020_1">
  <g id="_587607544">
   <g>
    <path class="fil0" d="M388 976l-11 212c35,3 69,3 102,1l4 -102 4 0 5 103c33,1 70,1 102,-4l-14 -209c0,0 -191,-1 -192,-1z"/>
    <path class="fil1" d="M378 1182c33,3 67,3 101,0l0 7c-34,3 -68,2 -101,0l0 -7z"/>
    <path class="fil1" d="M492 1184c34,1 68,0 101,-3l1 6c-34,5 -68,5 -102,3l0 -6z"/>
    <path class="fil2" d="M387 1141c6,0 12,-4 17,-9 5,6 11,9 18,9 0,15 -6,26 -18,31 -13,-6 -17,-17 -17,-31z"/>
    <path class="fil3" d="M387 1141c3,-1 6,-2 9,-3 2,-2 5,-4 8,-7l0 -1 1 1c2,3 5,5 8,7 3,2 6,2 9,2l0 1 0 0c1,8 -1,14 -4,20 -3,5 -7,9 -13,12l-1 0 0 0c-7,-3 -11,-8 -14,-13 -3,-5 -4,-12 -4,-19l0 0 1 0zm9 -2c-2,2 -5,3 -8,3 0,7 1,12 3,17 3,5 7,9 13,12 6,-2 10,-6 13,-11 2,-5 4,-11 4,-18 -3,0 -6,-1 -9,-3 -3,-1 -5,-3 -8,-6 -2,2 -5,5 -8,6z"/>
    <path class="fil0" d="M418 1153c-2,7 -7,13 -14,16 -7,-4 -12,-9 -13,-16l27 0z"/>
    <path class="fil1" d="M390 1143c5,-1 10,-3 14,-8 5,5 10,8 15,8 0,3 0,7 -1,10l-27 0c-1,-3 -1,-7 -1,-10z"/>
   </g>
   <g>
    <g>
     <g>
     </g>
     <g style="clip-path:url(#id0)">
      <g>
       <rect class="fil1" x="385" y="599" width="75.305" height="412.603"/>
       <rect class="fil1" x="507" y="599" width="78.4524" height="412.603"/>
       <rect class="fil0" x="449" y="599" width="63.9247" height="412.603"/>
       <path class="fil0" d="M481 616c30,0 59,14 73,45 5,14 -4,26 -5,39l36 44 48 -43 -26 -54 -86 -51 -40 1 0 19z"/>
       <path class="fil0" d="M415 700c-2,-13 -11,-19 -7,-38 11,-29 41,-45 72,-45l0 -20 -64 3 -119 73c0,0 24,51 26,53 2,1 63,25 63,25 0,0 29,-51 29,-51z"/>
      </g>
     </g>
     <path class="fil4" d="M436 609c-20,7 -62,58 -93,87l38 38 35 -35c-17,92 -25,185 -29,278 64,14 129,13 193,2 -2,-94 -13,-186 -31,-279l33 34 38 -38c-31,-28 -67,-76 -94,-87l-11 5 -34 32 -39 -35c0,0 -6,-1 -6,-2z"/>
     <path class="fil1" d="M446 607c10,11 22,22 36,32 12,-10 24,-20 34,-32 3,0 7,1 10,2 -11,18 -26,32 -44,45 -18,-12 -34,-26 -46,-45 3,-1 6,-2 10,-2z"/>
     <polygon class="fil1" points="322,714 343,696 381,734 363,753 "/>
     <polygon class="fil1" points="641,714 620,696 581,734 600,753 "/>
    </g>
    <g>
     <path class="fil2" d="M497 677c8,-1 16,-5 22,-13 7,8 15,12 23,13 1,20 -7,33 -23,41 -17,-9 -23,-23 -22,-41z"/>
     <path class="fil3" d="M497 676c4,-1 7,-2 11,-4 4,-2 7,-5 11,-9l0 -1 1 1c4,4 7,7 11,9 4,2 7,3 11,4l1 0 0 1c1,10 -1,18 -5,25 -4,7 -10,13 -18,17l-1 0 0 0c-9,-5 -15,-10 -19,-18 -3,-7 -5,-15 -4,-24l0 -1 1 0zm12 -2c-3,2 -7,3 -11,4 0,8 1,16 4,22 4,7 9,12 17,17 8,-4 13,-9 17,-16 4,-6 5,-14 5,-23 -4,-1 -7,-2 -11,-4 -4,-2 -7,-5 -11,-9 -3,4 -6,7 -10,9z"/>
     <path class="fil0" d="M538 692c-3,10 -9,17 -18,22 -11,-5 -16,-13 -18,-22l36 0z"/>
     <path class="fil1" d="M500 679c7,-1 14,-5 19,-11 6,7 13,11 20,11 0,4 0,9 -1,13l-37 0c0,-4 -1,-9 -1,-13z"/>
    </g>
   </g>
  </g>
 </g>
</svg>
