<?xml version="1.0" encoding="UTF-8"?>
<!DOCTYPE svg PUBLIC "-//W3C//DTD SVG 1.1//EN" "http://www.w3.org/Graphics/SVG/1.1/DTD/svg11.dtd">
<svg xmlns="http://www.w3.org/2000/svg" xml:space="preserve" width="100%" height="100%" version="1.1" style="shape-rendering:geometricPrecision; text-rendering:geometricPrecision; image-rendering:optimizeQuality; fill-rule:evenodd; clip-rule:evenodd"
viewBox="0 0 963 1497"
 xmlns:xlink="http://www.w3.org/1999/xlink">
 <defs>
  <style type="text/css">
   <![CDATA[
    .fil4 {fill:none}
    .fil3 {fill:#FEFEFE}
    .fil2 {fill:#2969B0}
    .fil1 {fill:#B8312F}
    .fil0 {fill:#EFEFEF}
    .fil6 {fill:#F7DA64}
    .fil5 {fill:#2969B0;fill-rule:nonzero}
   ]]>
  </style>
    <clipPath id="id0">
     <path d="M438 610c-28,13 -58,54 -87,81l36 36 32 -33c-15,87 -23,175 -26,262 60,14 121,13 182,2 -2,-88 -13,-175 -30,-263l31 32 36 -35c-29,-27 -58,-68 -88,-83l-11 5 -32 30 -36 -33c0,0 -7,-1 -7,-1z"/>
    </clipPath>
 </defs>
 <g id="Layer_x0020_1">
  <g id="_562426744">
   <path class="fil0" d="M393 955l-10 201c33,2 65,2 96,0l4 -96 4 0 4 97c32,1 66,1 96,-3l-12 -198c0,0 -181,-1 -182,-1z"/>
   <g>
   </g>
   <g style="clip-path:url(#id0)">
    <g id="_562435120">
     <rect class="fil1" x="482" y="614" width="43.8416" height="359.869"/>
     <rect class="fil2" x="438" y="614" width="43.8416" height="359.412"/>
     <rect class="fil1" x="389" y="622" width="48.6731" height="351.647"/>
     <rect class="fil2" x="525" y="622" width="53.4315" height="351.647"/>
     <rect class="fil3" x="435" y="619" width="5.48054" height="379.96"/>
     <rect class="fil3" x="479" y="613" width="5.48054" height="385.898"/>
     <rect class="fil3" x="522" y="619" width="5.48054" height="379.96"/>
     <path class="fil1" d="M481 616c28,0 56,13 68,43 6,13 -3,24 -4,36l34 41 46 -40 -25 -51 -81 -48 -38 1 0 18z"/>
     <path class="fil2" d="M419 695c-3,-12 -11,-18 -7,-36 10,-27 39,-42 68,-43l0 -18 -60 3 -113 68c0,0 23,49 25,50 2,2 59,24 59,24 0,0 28,-48 28,-48z"/>
    </g>
   </g>
   <path class="fil4" d="M438 610c-28,13 -58,54 -87,81l36 36 32 -33c-15,87 -23,175 -26,262 60,14 121,13 182,2 -2,-88 -13,-175 -30,-263l31 32 36 -35c-29,-27 -58,-68 -88,-83l-11 5 -32 30 -36 -33c0,0 -7,-1 -7,-1z"/>
   <path class="fil0" d="M448 607c10,11 20,21 34,30 12,-8 23,-18 32,-30l10 2c-10,17 -25,31 -42,43 -17,-11 -32,-24 -43,-42l9 -3z"/>
   <polygon class="fil0" points="331,709 351,691 387,727 370,745 "/>
   <polygon class="fil0" points="632,709 612,692 576,727 593,745 "/>
   <path class="fil1" d="M384 1150c31,2 63,2 95,0l0 6c-32,3 -64,2 -95,0l0 -6z"/>
   <path class="fil1" d="M491 1151c32,1 64,1 96,-2l0 6c-32,4 -64,4 -96,2l0 -6z"/>
   <path class="fil2" d="M384 1141c31,2 63,2 95,0l0 6c-32,3 -64,3 -95,0l0 -6z"/>
   <path class="fil2" d="M491 1142c32,2 64,1 96,-2l0 6c-32,4 -64,4 -96,2l0 -6z"/>
   <g id="_562429288">
    <circle class="fil0" cx="513" cy="693" r="33"/>
    <path class="fil2" d="M514 664c16,0 29,13 29,29 0,16 -13,29 -29,29 -16,0 -29,-13 -29,-29 0,-16 13,-29 29,-29zm0 8c11,0 21,9 21,21 0,12 -10,21 -21,21 -12,0 -22,-9 -22,-21 0,-12 10,-21 22,-21z"/>
    <circle class="fil0" cx="514" cy="693" r="19"/>
    <path class="fil5" d="M514 674c5,0 10,2 13,5 4,4 6,9 6,14 0,5 -2,10 -6,14 -3,3 -8,5 -13,5 -6,0 -10,-2 -14,-5 -3,-4 -6,-9 -6,-14 0,-5 3,-10 6,-14 4,-3 8,-5 14,-5zm12 7c-3,-4 -7,-6 -12,-6 -5,0 -10,2 -13,6 -3,3 -5,7 -5,12 0,5 2,9 5,13 3,3 8,5 13,5 5,0 9,-2 12,-5 3,-4 5,-8 5,-13 0,-5 -2,-9 -5,-12z"/>
    <rect class="fil0" x="501" y="683" width="25.8047" height="4.70645"/>
    <rect class="fil1" x="501" y="688" width="25.8047" height="4.70645"/>
    <rect class="fil0" x="501" y="693" width="25.8047" height="4.70645"/>
    <rect class="fil1" x="501" y="697" width="25.8047" height="4.70645"/>
    <rect class="fil2" x="501" y="683" width="9.41314" height="9.41314"/>
    <circle class="fil0" cx="506" cy="688" r="3"/>
   </g>
   <g id="_562427680">
    <circle class="fil0" cx="417" cy="1105" r="26"/>
    <path class="fil2" d="M418 1082c12,0 23,10 23,23 0,13 -11,23 -23,23 -13,0 -23,-10 -23,-23 0,-13 10,-23 23,-23zm0 6c9,0 16,7 16,17 0,9 -7,17 -16,17 -10,0 -17,-8 -17,-17 0,-10 7,-17 17,-17z"/>
    <circle class="fil0" cx="418" cy="1105" r="15"/>
    <path class="fil5" d="M418 1090c4,0 8,1 10,4 3,3 5,7 5,11 0,4 -2,8 -5,11 -2,2 -6,4 -10,4 -5,0 -9,-2 -11,-4 -3,-3 -5,-7 -5,-11 0,-4 2,-8 5,-11 2,-3 6,-4 11,-4zm9 5c-2,-3 -6,-4 -9,-4 -4,0 -8,1 -10,4 -3,2 -5,6 -5,10 0,4 2,7 5,10 2,2 6,4 10,4 3,0 7,-2 9,-4 3,-3 5,-6 5,-10 0,-4 -2,-8 -5,-10z"/>
    <rect class="fil0" x="408" y="1097" width="20.4259" height="3.72542"/>
    <rect class="fil1" x="408" y="1101" width="20.4259" height="3.72542"/>
    <rect class="fil0" x="408" y="1104" width="20.4259" height="3.72542"/>
    <rect class="fil1" x="408" y="1108" width="20.4259" height="3.72542"/>
    <rect class="fil2" x="408" y="1097" width="7.45104" height="7.45104"/>
    <circle class="fil0" cx="411" cy="1101" r="3"/>
   </g>
   <path class="fil6" d="M496 650l1 0c1,-1 2,-1 2,-2l0 -2c1,-1 1,-1 2,-1l2 2c0,0 1,1 2,0l2 0c0,0 1,1 0,2l-1 2c0,0 0,1 0,2l1 1c1,1 0,2 -1,2l-2 -1c-1,0 -1,0 -2,1l-1 1c-1,1 -1,1 -2,0l0 -2c0,-1 0,-1 -1,-2l-2 -1c-1,-1 -1,-1 0,-2z"/>
   <path class="fil6" d="M528 650l-2 0c-1,-1 -1,-1 -1,-2l-1 -2c0,-1 -1,-1 -1,-1l-2 2c-1,0 -2,1 -2,0l-2 0c-1,0 -1,1 -1,2l1 2c0,0 0,1 0,2l-1 1c0,1 0,2 1,2l2 -1c1,0 2,0 2,1l2 1c0,1 1,1 1,0l1 -2c0,-1 0,-1 0,-2l3 -1c0,-1 0,-1 0,-2z"/>
   <path class="fil6" d="M404 1075l1 -1c0,0 1,-1 1,-1l0 -2c0,0 1,-1 2,0l1 1c0,0 1,1 2,0l1 0c1,0 1,1 1,1l-1 2c0,1 0,1 0,2l0 1c1,0 1,1 0,1l-2 0c0,0 -1,0 -1,0l-1 1c-1,1 -2,1 -2,0l0 -2c0,0 0,-1 -1,-1l-1 -1c-1,0 -1,-1 0,-1z"/>
   <path class="fil6" d="M428 1075l-1 -1c0,0 -1,-1 -1,-1l0 -2c0,0 -1,-1 -1,0l-2 1c0,0 -1,1 -2,0l-1 0c-1,0 -1,1 -1,1l1 2c1,1 0,1 0,2l0 1c-1,0 -1,1 0,1l2 0c1,0 1,0 1,0l2 1c0,1 1,1 1,0l0 -2c0,0 0,-1 1,-1l1 -1c1,0 1,-1 0,-1z"/>
  </g>
 </g>
</svg>
