<svg xmlns="http://www.w3.org/2000/svg" xml:space="preserve" width="100%" height="100%" version="1.1"
    style="shape-rendering:geometricPrecision; text-rendering:geometricPrecision; image-rendering:optimizeQuality; fill-rule:evenodd; clip-rule:evenodd"
    viewBox="0 0 963 1497" xmlns:xlink="http://www.w3.org/1999/xlink">
    <defs>
        <style type="text/css">
            <![CDATA[
            .str0 {
                stroke: #225691;
                stroke-width: 4.99764;
                stroke-linecap: round;
                stroke-linejoin: round
            }

            .fil2 {
                fill: none
            }

            .fil0 {
                fill: #2969B0
            }

            .fil1 {
                fill: #EFEFEF
            }
            ]]>
        </style>
    </defs>
    <g id="Layer_x0020_1">
        <g id="_408893032">
            <path class="fil0"
                d="M399 898l-24 355c36,3 72,3 107,0l0 -204 4 0 6 204c36,5 71,5 107,0l-29 -357 -164 -3 -7 5z" />
            <path class="fil1"
                d="M433 611l12 -5 37 35 36 -35c5,1 12,2 19,7 -2,26 -1,52 6,77 13,56 30,195 31,250 -56,5 -123,6 -178,2 2,-56 10,-196 26,-254 0,0 11,-77 11,-77z" />
            <path class="fil0"
                d="M451 605c9,12 19,23 31,32 12,-9 23,-21 32,-32l6 1c-11,17 -24,31 -38,44 -15,-14 -27,-28 -38,-44l7 -1z" />
            <path class="fil0" d="M421 690c4,-25 8,-48 5,-74 2,-3 5,-5 8,-6 3,28 -3,56 -12,81l-1 -1z" />
            <path class="fil0" d="M544 690c-4,-25 -8,-48 -5,-74 -2,-3 -5,-5 -7,-6 -4,28 2,56 12,81l0 -1z" />
            <path class="fil2 str0" d="M376 1236c36,4 71,4 106,0" />
            <path class="fil2 str0" d="M491 1235c36,4 72,4 107,-3" />
            <path class="fil0" d="M421 693l123 0c3,12 5,24 7,36l-137 0c2,-12 4,-24 7,-36z" />
            <path class="fil2 str0" d="M397 948c57,7 115,7 174,-1" />
        </g>
    </g>
</svg>