<svg xmlns="http://www.w3.org/2000/svg" xml:space="preserve" width="100%" height="100%" version="1.1" style="shape-rendering:geometricPrecision; text-rendering:geometricPrecision; image-rendering:optimizeQuality; fill-rule:evenodd; clip-rule:evenodd"
viewBox="0 0 963 1497"
 xmlns:xlink="http://www.w3.org/1999/xlink">
 <defs>
  <style type="text/css">
   <![CDATA[
    .str1 {stroke:#9C3234;stroke-width:3.99764;stroke-linecap:round;stroke-linejoin:round}
    .str0 {stroke:#225691;stroke-width:3.99764;stroke-linecap:round;stroke-linejoin:round}
    .fil1 {fill:none}
    .fil2 {fill:#B73437}
    .fil3 {fill:#9C3234}
    .fil4 {fill:black}
    .fil0 {fill:#2969B0}
   ]]>
  </style>
     <clipPath id="id0">
      <path d="M394 920l53 14 -7 -249 -49 -32c17,-17 32,-42 57,-46 7,-14 10,-29 10,-45 16,2 32,2 48,0 -1,16 2,31 7,45 20,2 37,23 56,43l-49 35 -2 249 50 -13c2,13 3,27 3,41l-89 38 -90 -39c1,-13 1,-27 2,-41zm-11 345c3,26 31,15 47,8 12,-6 26,-12 41,-11l0 236 -211 0c-8,-44 9,-63 35,-75 39,-19 70,-17 85,-65 0,0 3,-94 3,-93zm200 -1c-3,27 -26,16 -42,9 -12,-6 -26,-12 -41,-11l0 236 211 0c8,-44 -9,-63 -35,-75 -39,-19 -74,-17 -89,-66 0,0 -4,-93 -4,-93zm-357 -470c-28,22 -58,46 -86,70 -31,-3 -61,-11 -85,-31 -10,-1 -16,10 -16,21 7,25 36,23 33,42 -9,22 -51,41 -71,63 -5,8 1,21 12,18 18,-9 37,-23 54,-28 1,0 1,1 1,2 -12,14 -30,29 -45,44 -2,11 4,15 13,16 18,-6 37,-27 53,-37 2,1 2,1 3,3 -8,17 -23,35 -30,54 1,10 7,12 16,10 14,-14 24,-34 36,-50 2,0 3,0 3,1l3 54c3,7 10,8 17,3 8,-17 2,-35 5,-53 15,-23 39,-38 44,-70 31,-25 61,-52 89,-80 -20,-15 -37,-32 -49,-52zm596 70c32,-3 61,-11 85,-31 10,-1 16,10 16,21 -7,25 -36,23 -33,42 10,22 52,41 71,63 5,8 -1,21 -12,18 -18,-9 -37,-23 -54,-28 0,0 -1,1 -1,2 13,14 30,29 45,44 2,11 -4,15 -13,16 -18,-6 -37,-27 -53,-37 -1,1 -2,1 -3,3 8,17 23,35 30,54 -1,10 -7,12 -16,10 -14,-14 -24,-34 -36,-50 -1,0 -3,0 -3,1l-2 54c-4,7 -11,8 -17,3 -8,-17 -3,-35 -6,-53 -15,-23 -39,-38 -44,-70 -31,-25 -60,-52 -88,-81 20,-14 36,-31 48,-51 28,22 59,46 86,70z"/>
     </clipPath>
 </defs>
 <g id="Layer_x0020_1">
  <g id="_585190328">
   <g>
    <path class="fil0" d="M382 1288l89 2 -1 -248 23 0 0 0 5 0 3 247 83 2c-6,-201 -9,-401 -43,-601 51,52 99,107 150,159 20,-13 37,-30 49,-52 -54,-42 -109,-84 -159,-134 -13,-13 -37,-40 -52,-50 -4,-3 -9,-5 -16,-6 0,0 0,0 0,0l-1 -3c-4,-11 -7,-24 -7,-37l-48 12c-1,10 -4,20 -8,28l0 0c-7,1 -12,3 -16,6 -15,10 -38,37 -52,50 -50,50 -104,92 -158,134 10,22 27,39 48,54 51,-52 100,-108 150,-161 -36,207 -33,388 -39,598zm102 -340c0,1 0,1 0,2 0,-1 0,-1 0,-2l0 0z"/>
    <path class="fil1 str0" d="M402 1190c-3,4 -11,34 10,30 8,-2 -1,-43 -6,-24 0,1 0,1 0,3"/>
    <path class="fil1 str0" d="M563 1190c2,4 11,34 -11,30 -7,-2 2,-43 6,-24 1,1 0,1 0,3"/>
   </g>
   <g>
    <path class="fil2" d="M394 920l53 14 -7 -249 -49 -32c17,-17 32,-42 57,-46 7,-14 10,-29 10,-45 16,2 32,2 48,0 -1,16 2,31 7,45 20,2 37,23 56,43l-49 35 -2 249 50 -13c2,13 3,27 3,41l-89 38 -90 -39c1,-13 1,-27 2,-41zm-11 345c3,26 31,15 47,8 12,-6 26,-12 41,-11l0 236 -211 0c-8,-44 9,-63 35,-75 39,-19 70,-17 85,-65 0,0 3,-94 3,-93zm200 -1c-3,27 -26,16 -42,9 -12,-6 -26,-12 -41,-11l0 236 211 0c8,-44 -9,-63 -35,-75 -39,-19 -74,-17 -89,-66 0,0 -4,-93 -4,-93zm-357 -470c-28,22 -58,46 -86,70 -31,-3 -61,-11 -85,-31 -10,-1 -16,10 -16,21 7,25 36,23 33,42 -9,22 -51,41 -71,63 -5,8 1,21 12,18 18,-9 37,-23 54,-28 1,0 1,1 1,2 -12,14 -30,29 -45,44 -2,11 4,15 13,16 18,-6 37,-27 53,-37 2,1 2,1 3,3 -8,17 -23,35 -30,54 1,10 7,12 16,10 14,-14 24,-34 36,-50 2,0 3,0 3,1l3 54c3,7 10,8 17,3 8,-17 2,-35 5,-53 15,-23 39,-38 44,-70 31,-25 61,-52 89,-80 -20,-15 -37,-32 -49,-52zm596 70c32,-3 61,-11 85,-31 10,-1 16,10 16,21 -7,25 -36,23 -33,42 10,22 52,41 71,63 5,8 -1,21 -12,18 -18,-9 -37,-23 -54,-28 0,0 -1,1 -1,2 13,14 30,29 45,44 2,11 -4,15 -13,16 -18,-6 -37,-27 -53,-37 -1,1 -2,1 -3,3 8,17 23,35 30,54 -1,10 -7,12 -16,10 -14,-14 -24,-34 -36,-50 -1,0 -3,0 -3,1l-2 54c-4,7 -11,8 -17,3 -8,-17 -3,-35 -6,-53 -15,-23 -39,-38 -44,-70 -31,-25 -60,-52 -88,-81 20,-14 36,-31 48,-51 28,22 59,46 86,70z"/>
    <g style="clip-path:url(#id0)">
     <g>
      <path id="1" class="fil3" d="M452 576c18,15 38,17 60,7l2 -28 -62 -4c0,0 0,27 0,25z"/>
     </g>
    </g>
    <path class="fil1" d="M394 920l53 14 -7 -249 -49 -32c17,-17 32,-42 57,-46 7,-14 10,-29 10,-45 16,2 32,2 48,0 -1,16 2,31 7,45 20,2 37,23 56,43l-49 35 -2 249 50 -13c2,13 3,27 3,41l-89 38 -90 -39c1,-13 1,-27 2,-41zm-11 345c3,26 31,15 47,8 12,-6 26,-12 41,-11l0 236 -211 0c-8,-44 9,-63 35,-75 39,-19 70,-17 85,-65 0,0 3,-94 3,-93zm200 -1c-3,27 -26,16 -42,9 -12,-6 -26,-12 -41,-11l0 236 211 0c8,-44 -9,-63 -35,-75 -39,-19 -74,-17 -89,-66 0,0 -4,-93 -4,-93zm-357 -470c-28,22 -58,46 -86,70 -31,-3 -61,-11 -85,-31 -10,-1 -16,10 -16,21 7,25 36,23 33,42 -9,22 -51,41 -71,63 -5,8 1,21 12,18 18,-9 37,-23 54,-28 1,0 1,1 1,2 -12,14 -30,29 -45,44 -2,11 4,15 13,16 18,-6 37,-27 53,-37 2,1 2,1 3,3 -8,17 -23,35 -30,54 1,10 7,12 16,10 14,-14 24,-34 36,-50 2,0 3,0 3,1l3 54c3,7 10,8 17,3 8,-17 2,-35 5,-53 15,-23 39,-38 44,-70 31,-25 61,-52 89,-80 -20,-15 -37,-32 -49,-52zm596 70c32,-3 61,-11 85,-31 10,-1 16,10 16,21 -7,25 -36,23 -33,42 10,22 52,41 71,63 5,8 -1,21 -12,18 -18,-9 -37,-23 -54,-28 0,0 -1,1 -1,2 13,14 30,29 45,44 2,11 -4,15 -13,16 -18,-6 -37,-27 -53,-37 -1,1 -2,1 -3,3 8,17 23,35 30,54 -1,10 -7,12 -16,10 -14,-14 -24,-34 -36,-50 -1,0 -3,0 -3,1l-2 54c-4,7 -11,8 -17,3 -8,-17 -3,-35 -6,-53 -15,-23 -39,-38 -44,-70 -31,-25 -60,-52 -88,-81 20,-14 36,-31 48,-51 28,22 59,46 86,70z"/>
    <path class="fil1 str1" d="M85 905c18,20 39,18 61,9"/>
    <path class="fil1 str1" d="M67 943c15,22 34,35 56,42"/>
    <path class="fil1 str1" d="M877 905c-18,20 -39,18 -61,9"/>
    <path class="fil1 str1" d="M895 943c-14,22 -34,35 -56,42"/>
   </g>
   <path class="fil4" d="M435 697c-3,-1 -4,0 -5,2 1,1 3,1 4,2 2,0 3,-1 3,-2 1,-1 3,-3 3,-4 2,-2 3,-4 5,-5 1,-1 4,-4 6,-3 2,0 4,0 5,0l2 1 1 1c-1,3 1,13 2,16 -2,0 -9,0 -10,2 -4,5 -5,11 -7,15 -2,1 -3,1 -3,4 5,1 5,-1 6,-3 1,-4 4,-12 7,-14 1,0 8,-1 9,0 0,1 -1,1 -2,1 -1,1 -2,1 -3,2 -2,1 -2,1 -3,5 0,2 -1,4 -1,7 0,2 1,5 1,7 -2,1 -3,1 -3,4 3,0 5,-1 5,-4 0,-4 0,-12 2,-15 1,-1 4,-3 6,-3 0,0 1,1 1,2 3,5 9,10 16,9 6,0 11,-5 14,-10 0,-1 1,-2 1,-3 2,1 5,2 6,4 1,2 1,4 1,7 0,2 0,5 0,8 0,3 3,4 5,3 1,-2 0,-3 -2,-4 0,-2 0,-5 0,-7 0,-2 0,-5 0,-7 -1,-3 -2,-4 -6,-6 -2,-1 -2,-1 -2,-2 1,0 4,0 5,0 4,1 6,1 8,7 3,8 3,12 9,10 0,-2 -1,-3 -4,-3 -1,-5 -3,-15 -9,-17 -2,0 -7,-1 -7,-1 1,-8 0,-10 0,-15 0,-1 1,-1 2,-1 2,-1 5,-2 7,-2 2,0 5,2 6,3 1,1 9,11 10,11 1,0 2,0 3,0 2,-1 3,-1 2,-2l0 -1c-1,-1 0,0 -1,-1 -2,1 -2,1 -4,0 -2,-2 -2,-3 -5,-6 -1,-2 -4,-5 -6,-7 -3,-1 -3,-1 -7,-1 -2,0 -4,1 -7,2 0,-1 -1,-2 -1,-3 0,-1 -1,-1 -1,-2 0,-1 2,-1 3,-2 4,-3 14,3 19,5 3,2 5,-2 6,-3 -3,-2 -4,-1 -6,0 -4,-2 -15,-9 -20,-7 -2,1 -5,4 -5,4 -2,-2 -4,-3 -6,-4 -8,-4 -19,-2 -25,5 -5,-2 -4,-5 -13,-2 -2,1 -4,1 -6,2 -2,1 -4,3 -5,3 -3,-1 -3,-1 -6,0 0,2 3,5 6,4 3,-2 10,-6 14,-6 4,-1 5,0 7,2 0,1 -1,2 -1,3 0,0 -1,1 -1,2 -1,0 -3,-1 -4,-1 -5,-1 -7,-1 -10,2 -2,1 -3,3 -5,4 -1,1 -1,2 -2,3 -1,1 -3,4 -4,5z"/>
  </g>
 </g>
</svg>
