<?xml version="1.0" encoding="iso-8859-1"?>
<!-- Generator: Adobe Illustrator 19.0.0, SVG Export Plug-In . SVG Version: 6.00 Build 0)  -->
<svg version="1.1" id="Capa_1" xmlns="http://www.w3.org/2000/svg" xmlns:xlink="http://www.w3.org/1999/xlink" x="0px" y="0px"
	 viewBox="0 0 419.386 419.386" style="enable-background:new 0 0 419.386 419.386;" xml:space="preserve">
<path style="fill:#DDDDDD;" d="M237.399,387.186H35.666c-15.928,0-28.839-12.913-28.839-28.839V61.039
	c0-15.927,12.911-28.839,28.839-28.839h201.733c15.928,0,28.839,12.913,28.839,28.839v297.306
	C266.24,374.274,253.327,387.186,237.399,387.186z"/>
<path d="M237.399,394.013H35.666C16,394.013,0,378.013,0,358.347V61.039c0-19.666,16-35.666,35.666-35.666h201.733
	c19.666,0,35.666,16,35.666,35.666v297.306C273.067,378.013,257.067,394.013,237.399,394.013z M35.666,39.026
	c-12.138,0-22.013,9.875-22.013,22.013v297.306c0,12.138,9.875,22.013,22.013,22.013h201.733c12.138,0,22.013-9.875,22.013-22.013
	V61.039c0-12.138-9.875-22.013-22.013-22.013H35.666z"/>
<rect x="27.302" y="52.68" style="fill:#595959;" width="218.453" height="266.24"/>
<path d="M245.76,325.746H27.307c-3.77,0-6.827-3.057-6.827-6.827V52.68c0-3.77,3.057-6.827,6.827-6.827H245.76
	c3.77,0,6.827,3.057,6.827,6.827v266.24C252.587,322.69,249.53,325.746,245.76,325.746z M34.133,312.093h204.8V59.506h-204.8
	C34.133,59.506,34.133,312.093,34.133,312.093z"/>
<path style="fill:#EAC583;" d="M142.594,187.431c-5.815,3.249-12.517,5.113-19.645,5.113c-22.362,0-40.492-18.265-40.492-40.798
	c0-22.525,18.13-40.791,40.492-40.791c14.275,0,26.831,7.451,34.039,18.693"/>
<path d="M122.95,199.371c-26.092,0-47.319-21.364-47.319-47.625c0-26.257,21.228-47.618,47.319-47.618
	c16.145,0,31.019,8.163,39.786,21.835c2.036,3.173,1.113,7.395-2.062,9.431c-3.173,2.036-7.397,1.111-9.431-2.062
	c-6.245-9.738-16.823-15.553-28.293-15.553c-18.563,0-33.666,15.237-33.666,33.964c0,18.732,15.102,33.971,33.666,33.971
	c5.704,0,11.346-1.468,16.314-4.246c3.29-1.84,7.45-0.662,9.289,2.628c1.84,3.29,0.662,7.45-2.628,9.289
	C138.924,197.303,130.98,199.371,122.95,199.371z"/>
<path style="fill:#EAC583;" d="M337.698,130.166c7.146-11.532,19.871-19.209,34.371-19.209c22.362,0,40.492,18.265,40.492,40.791
	c0,22.531-18.13,40.798-40.492,40.798c-7.202,0-13.976-1.894-19.83-5.217"/>
<path d="M372.069,199.371c-8.139,0-16.16-2.113-23.2-6.108c-3.279-1.86-4.427-6.028-2.567-9.306
	c1.862-3.279,6.028-4.427,9.306-2.567c4.989,2.831,10.68,4.328,16.459,4.328c18.563,0,33.666-15.239,33.666-33.971
	c0-18.727-15.102-33.964-33.666-33.964c-11.689,0-22.369,5.973-28.568,15.978c-1.987,3.205-6.193,4.192-9.399,2.207
	c-3.205-1.987-4.193-6.193-2.207-9.399c8.707-14.051,23.724-22.439,40.173-22.439c26.092,0,47.319,21.361,47.319,47.618
	C419.386,178.007,398.16,199.371,372.069,199.371z"/>
<path style="fill:#EAC583;" d="M247.504,81.981c57.451,0,104.025,45.024,104.025,100.555s-46.573,100.555-104.025,100.555
	c-57.45,0-104.023-45.024-104.023-100.555S190.053,81.981,247.504,81.981L247.504,81.981z"/>
<path d="M247.504,289.918c-61.123,0-110.85-48.171-110.85-107.382s49.727-107.382,110.85-107.382s110.851,48.172,110.851,107.382
	S308.627,289.918,247.504,289.918z M247.504,88.806c-53.594,0-97.196,42.047-97.196,93.728s43.602,93.728,97.196,93.728
	s97.198-42.047,97.198-93.728C344.701,130.854,301.099,88.806,247.504,88.806z"/>
<path style="fill:#997843;" d="M247.504,182.182c22.364,0,40.492,10.798,40.492,24.12s-18.13,24.129-40.492,24.129
	s-40.491-10.807-40.491-24.129S225.142,182.182,247.504,182.182L247.504,182.182z"/>
<path d="M247.504,237.257c-26.534,0-47.317-13.597-47.317-30.956c0-17.353,20.784-30.947,47.317-30.947
	c26.534,0,47.319,13.594,47.319,30.947C294.823,223.66,274.038,237.257,247.504,237.257z M247.504,189.008
	c-19.838,0-33.664,9.114-33.664,17.294c0,8.183,13.826,17.302,33.664,17.302c19.84,0,33.666-9.119,33.666-17.302
	C281.17,198.122,267.344,189.008,247.504,189.008z"/>
<path d="M114.231,160.701c-1.669,0-3.343-0.608-4.659-1.838c-2.755-2.574-2.901-6.895-0.328-9.649
	c13.481-14.428,26.945-9.492,39.485-2.009c3.238,1.932,4.297,6.122,2.365,9.359c-1.932,3.238-6.124,4.297-9.359,2.365
	c-13.244-7.9-17.198-6.084-22.514-0.394C117.876,159.974,116.055,160.701,114.231,160.701z"/>
<path d="M382.812,160.701c-1.848,0-3.69-0.746-5.036-2.215c-5.279-5.765-12.39-10.284-25.108-0.09
	c-2.942,2.357-7.238,1.884-9.597-1.058c-2.357-2.942-1.884-7.24,1.058-9.597c15.739-12.612,31.264-12.07,43.715,1.524
	c2.546,2.78,2.357,7.1-0.423,9.644C386.111,160.109,384.459,160.701,382.812,160.701z"/>
<path d="M220.03,157.225h-0.792c-3.77,0-6.827-3.057-6.827-6.827c0-3.77,3.057-6.827,6.827-6.827h0.792
	c3.77,0,6.827,3.057,6.827,6.827C226.857,154.168,223.8,157.225,220.03,157.225z"/>
<path d="M275.77,157.225h-0.788c-3.77,0-6.827-3.057-6.827-6.827c0-3.77,3.057-6.827,6.827-6.827h0.788
	c3.77,0,6.827,3.057,6.827,6.827C282.597,154.168,279.54,157.225,275.77,157.225z"/>
<circle style="fill:#DDDDDD;" cx="136.528" cy="353.053" r="13.653"/>
<path d="M136.533,373.533c-11.293,0-20.48-9.187-20.48-20.48c0-11.293,9.187-20.48,20.48-20.48c11.293,0,20.48,9.187,20.48,20.48
	C157.013,364.346,147.826,373.533,136.533,373.533z M136.533,346.226c-3.765,0-6.827,3.062-6.827,6.827s3.062,6.827,6.827,6.827
	s6.827-3.062,6.827-6.827S140.297,346.226,136.533,346.226z"/>
<g>
</g>
<g>
</g>
<g>
</g>
<g>
</g>
<g>
</g>
<g>
</g>
<g>
</g>
<g>
</g>
<g>
</g>
<g>
</g>
<g>
</g>
<g>
</g>
<g>
</g>
<g>
</g>
<g>
</g>
</svg>
